<svg xmlns="http://www.w3.org/2000/svg" viewBox="0 0 128 128">
  <!-- Flask body -->
  <path d="M44 16h40v4H44z" fill="#7c3aed"/>
  <path d="M48 20v30l-20 50a8 8 0 0 0 7.4 11h57.2a8 8 0 0 0 7.4-11L80 50V20" fill="none" stroke="#7c3aed" stroke-width="5" stroke-linecap="round" stroke-linejoin="round"/>
  <!-- Liquid -->
  <path d="M34.8 97a8 8 0 0 0 7.4 11h43.6a8 8 0 0 0 7.4-11L76 60H52L34.8 97Z" fill="#a78bfa" opacity="0.5"/>
  <!-- Bubbles -->
  <circle cx="56" cy="82" r="5" fill="#c4b5fd" opacity="0.8"/>
  <circle cx="72" cy="74" r="3.5" fill="#c4b5fd" opacity="0.7"/>
  <circle cx="64" cy="90" r="4" fill="#ddd6fe" opacity="0.6"/>
  <circle cx="60" cy="64" r="2.5" fill="#c4b5fd" opacity="0.5"/>
  <circle cx="70" cy="56" r="2" fill="#ddd6fe" opacity="0.4"/>
  <!-- Flask neck lines -->
  <line x1="48" y1="20" x2="48" y2="50" stroke="#7c3aed" stroke-width="5" stroke-linecap="round"/>
  <line x1="80" y1="20" x2="80" y2="50" stroke="#7c3aed" stroke-width="5" stroke-linecap="round"/>
</svg>
